<svg xmlns="http://www.w3.org/2000/svg" xmlns:xlink="http://www.w3.org/1999/xlink" width="386pt" height="188pt" viewBox="0 0 385.6 188"><g id="graph0" class="graph" transform="scale(1 1) rotate(0) translate(4 184)"><title>datetime class hierarchy</title><g id="node1" class="node"><title>object</title><path fill="none" stroke="#000" d="M216.85,-180C216.85,-180 178.75,-180 178.75,-180 172.75,-180 166.75,-174 166.75,-168 166.75,-168 166.75,-156 166.75,-156 166.75,-150 172.75,-144 178.75,-144 178.75,-144 216.85,-144 216.85,-144 222.85,-144 228.85,-150 228.85,-156 228.85,-156 228.85,-168 228.85,-168 228.85,-174 222.85,-180 216.85,-180"/><text x="197.8" y="-156.57" font-family="monospace,monospace" font-size="14" text-anchor="middle">object</text></g><g id="node2" class="node"><title>tzinfo</title><path fill="none" stroke="#000" d="M56.85,-108C56.85,-108 18.75,-108 18.75,-108 12.75,-108 6.75,-102 6.75,-96 6.75,-96 6.75,-84 6.75,-84 6.75,-78 12.75,-72 18.75,-72 18.75,-72 56.85,-72 56.85,-72 62.85,-72 68.85,-78 68.85,-84 68.85,-84 68.85,-96 68.85,-96 68.85,-102 62.85,-108 56.85,-108"/><text x="37.8" y="-84.58" font-family="monospace,monospace" font-size="14" text-anchor="middle">tzinfo</text></g><g id="edge1" class="edge"><title>object-&gt;tzinfo</title><path fill="none" stroke="#000" d="M166.57,-147.34C138.47,-135.04 97.38,-117.07 69.22,-104.75"/></g><g id="node3" class="node"><title>timedelta</title><path fill="none" stroke="#000" d="M174.98,-108C174.98,-108 116.63,-108 116.63,-108 110.63,-108 104.63,-102 104.63,-96 104.63,-96 104.63,-84 104.63,-84 104.63,-78 110.63,-72 116.63,-72 116.63,-72 174.98,-72 174.98,-72 180.98,-72 186.98,-78 186.98,-84 186.98,-84 186.98,-96 186.98,-96 186.98,-102 180.98,-108 174.98,-108"/><text x="145.8" y="-84.58" font-family="monospace,monospace" font-size="14" text-anchor="middle">timedelta</text></g><g id="edge2" class="edge"><title>object-&gt;timedelta</title><path fill="none" stroke="#000" d="M184.95,-143.7C176.89,-132.85 166.54,-118.92 158.51,-108.1"/></g><g id="node4" class="node"><title>time</title><path fill="none" stroke="#000" d="M264.8,-108C264.8,-108 234.8,-108 234.8,-108 228.8,-108 222.8,-102 222.8,-96 222.8,-96 222.8,-84 222.8,-84 222.8,-78 228.8,-72 234.8,-72 234.8,-72 264.8,-72 264.8,-72 270.8,-72 276.8,-78 276.8,-84 276.8,-84 276.8,-96 276.8,-96 276.8,-102 270.8,-108 264.8,-108"/><text x="249.8" y="-84.58" font-family="monospace,monospace" font-size="14" text-anchor="middle">time</text></g><g id="edge3" class="edge"><title>object-&gt;time</title><path fill="none" stroke="#000" d="M210.65,-143.7C218.71,-132.85 229.06,-118.92 237.09,-108.1"/></g><g id="node5" class="node"><title>date</title><path fill="none" stroke="#000" d="M354.8,-108C354.8,-108 324.8,-108 324.8,-108 318.8,-108 312.8,-102 312.8,-96 312.8,-96 312.8,-84 312.8,-84 312.8,-78 318.8,-72 324.8,-72 324.8,-72 354.8,-72 354.8,-72 360.8,-72 366.8,-78 366.8,-84 366.8,-84 366.8,-96 366.8,-96 366.8,-102 360.8,-108 354.8,-108"/><text x="339.8" y="-84.58" font-family="monospace,monospace" font-size="14" text-anchor="middle">date</text></g><g id="edge4" class="edge"><title>object-&gt;date</title><path fill="none" stroke="#000" d="M229.31,-145.46C254.32,-133.14 288.9,-116.09 312.68,-104.37"/></g><g id="node6" class="node"><title>timezone</title><path fill="none" stroke="#000" d="M63.6,-36C63.6,-36 12,-36 12,-36 6,-36 0,-30 0,-24 0,-24 0,-12 0,-12 0,-6 6,0 12,0 12,0 63.6,0 63.6,0 69.6,0 75.6,-6 75.6,-12 75.6,-12 75.6,-24 75.6,-24 75.6,-30 69.6,-36 63.6,-36"/><text x="37.8" y="-12.57" font-family="monospace,monospace" font-size="14" text-anchor="middle">timezone</text></g><g id="edge5" class="edge"><title>tzinfo-&gt;timezone</title><path fill="none" stroke="#000" d="M37.8,-71.7C37.8,-60.85 37.8,-46.92 37.8,-36.1"/></g><g id="node7" class="node"><title>datetime</title><path fill="none" stroke="#000" d="M365.6,-36C365.6,-36 314,-36 314,-36 308,-36 302,-30 302,-24 302,-24 302,-12 302,-12 302,-6 308,0 314,0 314,0 365.6,0 365.6,0 371.6,0 377.6,-6 377.6,-12 377.6,-12 377.6,-24 377.6,-24 377.6,-30 371.6,-36 365.6,-36"/><text x="339.8" y="-12.57" font-family="monospace,monospace" font-size="14" text-anchor="middle">datetime</text></g><g id="edge6" class="edge"><title>date-&gt;datetime</title><path fill="none" stroke="#000" d="M339.8,-71.7C339.8,-60.85 339.8,-46.92 339.8,-36.1"/></g></g></svg>